<svg width="21" height="20" viewBox="0 0 21 20" fill="none" xmlns="http://www.w3.org/2000/svg">
<path d="M11.6244 3.87524V6.21207C11.6244 6.58496 11.6386 6.96173 11.5894 7.33216C11.5998 7.25459 11.6103 7.17702 11.6207 7.09957C11.5744 7.43351 11.4853 7.75928 11.3548 8.07023C11.3842 8.00058 11.4136 7.93083 11.443 7.86119C11.3138 8.1643 11.147 8.44913 10.9462 8.71041C10.9919 8.65137 11.0374 8.59233 11.0831 8.53329C10.8822 8.79178 10.6503 9.02358 10.3919 9.22447C10.4509 9.17882 10.51 9.13328 10.569 9.08763C10.3077 9.28841 10.0229 9.45526 9.71978 9.58441C9.78942 9.55506 9.85918 9.52559 9.92882 9.49624C9.61788 9.62671 9.29222 9.71588 8.95816 9.76209C9.03573 9.75171 9.1133 9.74122 9.19075 9.73083C8.78629 9.78452 8.37232 9.76577 7.96518 9.76577H6.75001H6.73383C6.25683 9.76577 5.85883 10.1638 5.85883 10.6408V10.771C5.85883 11.0084 5.95034 11.2303 6.11686 11.3991C6.12612 11.4085 6.13528 11.4178 6.14454 11.4271C6.19409 11.4774 6.24353 11.5276 6.29309 11.5777C6.49599 11.7834 6.69889 11.989 6.90169 12.1947C7.55837 12.8604 8.2152 13.526 8.87189 14.1918C9.55023 14.8794 10.2286 15.567 10.9068 16.2545C11.2312 16.5832 11.5554 16.912 11.8797 17.2406C11.8801 17.241 11.8804 17.2413 11.8807 17.2416C12.2155 17.581 12.7827 17.577 13.1181 17.2416C13.4569 16.9028 13.4529 16.3435 13.1181 16.0042C12.8103 15.6922 12.5024 15.3801 12.1946 15.0681C11.5214 14.3857 10.8483 13.7033 10.175 13.021C9.51221 12.3491 8.84938 11.6772 8.18652 11.0054C7.90851 10.7236 7.63049 10.4417 7.35249 10.1599C7.43787 10.3662 7.52336 10.5724 7.60874 10.7787V10.6408L6.73374 11.5158H7.81166C8.19826 11.5158 8.59057 11.5333 8.9766 11.5038C9.81043 11.4403 10.633 11.1794 11.3206 10.696C11.9891 10.2259 12.5571 9.60324 12.9038 8.85793C13.0809 8.47724 13.223 8.08527 13.2923 7.67044C13.3422 7.37213 13.3744 7.07279 13.3744 6.77044V5.66967V3.87524C13.3744 3.39824 12.9764 3.00024 12.4994 3.00024C12.0224 3.00024 11.6244 3.39824 11.6244 3.87524L11.6244 3.87524Z" fill="currentColor"/>
<path d="M6.73379 4.75024H7.99351H10.8122H13.75H15.366H15.4058C15.8828 4.75024 16.2808 4.35224 16.2808 3.87524C16.2808 3.39824 15.8828 3.00024 15.4058 3.00024H14.1462H11.3274H8.38969H6.77364H6.73391C6.25691 3.00024 5.85891 3.39824 5.85891 3.87524C5.85879 4.35224 6.25679 4.75024 6.73379 4.75024Z" fill="currentColor"/>
<path d="M15.4055 6.34412H14.1459H11.3272H8.38945H6.77339H6.73366C6.25666 6.34412 5.85866 6.74212 5.85866 7.21912C5.85866 7.69612 6.25666 8.09412 6.73366 8.09412H7.99338H10.8121H13.7498H15.3659H15.4056C15.8826 8.09412 16.2806 7.69612 16.2806 7.21912C16.2805 6.74212 15.8825 6.34412 15.4055 6.34412Z" fill="currentColor"/>
</svg>
